<?xml version="1.0" encoding="UTF-8"?>
<svg width="16" height="16" viewBox="0 0 16 16" xmlns="http://www.w3.org/2000/svg">
  <g fill="currentColor">
    <!-- minaret + dome, simplified for a 16px symbolic icon -->
    <path d="M8 1c-1 1-1.6 1.9-1.6 2.9 0 .9.7 1.6 1.6 1.6s1.6-.7 1.6-1.6C9.6 2.9 9 2 8 1z"/>
    <path d="M3.5 6.5c.8 0 1.4.6 1.4 1.4V14H2.1V7.9c0-.8.6-1.4 1.4-1.4z"/>
    <path d="M12.5 6.5c.8 0 1.4.6 1.4 1.4V14h-2.8V7.9c0-.8.6-1.4 1.4-1.4z"/>
    <path d="M8 5.6c-2 0-3.4 1.4-3.4 3.2V14h6.8V8.8C11.4 7 10 5.6 8 5.6zm-.9 4.1c0-.9.4-1.5.9-1.5s.9.6.9 1.5V14H7.1z"/>
  </g>
</svg>
